<?xml version="1.0" encoding="utf-8" standalone="no"?>
<!DOCTYPE svg PUBLIC "-//W3C//DTD SVG 1.1//EN"
  "http://www.w3.org/Graphics/SVG/1.1/DTD/svg11.dtd">
<!-- Created with matplotlib (https://matplotlib.org/) -->
<svg height="248.15875pt" version="1.1" viewBox="0 0 367.095312 248.15875" width="367.095312pt" xmlns="http://www.w3.org/2000/svg" xmlns:xlink="http://www.w3.org/1999/xlink">
 <defs>
  <style type="text/css">
*{stroke-linecap:butt;stroke-linejoin:round;}
  </style>
 </defs>
 <g id="figure_1">
  <g id="patch_1">
   <path d="M 0 248.15875 
L 367.095312 248.15875 
L 367.095312 0 
L 0 0 
z
" style="fill:none;"/>
  </g>
  <g id="axes_1">
   <g id="patch_2">
    <path d="M 25.095313 224.64 
L 359.895312 224.64 
L 359.895312 7.2 
L 25.095313 7.2 
z
" style="fill:#ffffff;"/>
   </g>
   <g id="matplotlib.axis_1">
    <g id="xtick_1">
     <g id="line2d_1">
      <defs>
       <path d="M 0 0 
L 0 3.5 
" id="m49274ed8f6" style="stroke:#000000;stroke-width:0.8;"/>
      </defs>
      <g>
       <use style="stroke:#000000;stroke-width:0.8;" x="40.313494" xlink:href="#m49274ed8f6" y="224.64"/>
      </g>
     </g>
     <g id="text_1">
      <!-- −1.00 -->
      <defs>
       <path d="M 55.6875 32.390625 
L 10.234375 32.390625 
L 10.234375 24.4375 
L 55.6875 24.4375 
z
" id="Inter-Regular-8722"/>
       <path d="M 33.09375 72.734375 
L 24.296875 72.734375 
L 6.109375 60.65625 
L 6.109375 51.703125 
L 23.859375 63.5 
L 24.296875 63.5 
L 24.296875 0 
L 33.09375 0 
z
" id="Inter-Regular-49"/>
       <path d="M 13.78125 -0.5625 
C 17.296875 -0.5625 20.171875 2.3125 20.171875 5.828125 
C 20.171875 9.34375 17.296875 12.21875 13.78125 12.21875 
C 10.265625 12.21875 7.390625 9.34375 7.390625 5.828125 
C 7.390625 2.3125 10.265625 -0.5625 13.78125 -0.5625 
z
" id="Inter-Regular-46"/>
       <path d="M 31.25 -1 
C 47.296875 -1 56.53125 12.609375 56.53125 36.359375 
C 56.53125 59.9375 47.15625 73.71875 31.25 73.71875 
C 15.34375 73.71875 5.96875 59.9375 5.96875 36.359375 
C 5.96875 12.609375 15.203125 -1 31.25 -1 
z
M 31.25 6.8125 
C 20.671875 6.8125 14.484375 17.4375 14.484375 36.359375 
C 14.484375 55.25 20.734375 66.046875 31.25 66.046875 
C 41.765625 66.046875 48.015625 55.25 48.015625 36.359375 
C 48.015625 17.4375 41.828125 6.8125 31.25 6.8125 
z
" id="Inter-Regular-48"/>
      </defs>
      <g transform="translate(27.067401 238.913437)scale(0.1 -0.1)">
       <use xlink:href="#Inter-Regular-8722"/>
       <use x="65.909103" xlink:href="#Inter-Regular-49"/>
       <use x="112.357971" xlink:href="#Inter-Regular-46"/>
       <use x="139.914795" xlink:href="#Inter-Regular-48"/>
       <use x="202.41481" xlink:href="#Inter-Regular-48"/>
      </g>
     </g>
    </g>
    <g id="xtick_2">
     <g id="line2d_2">
      <g>
       <use style="stroke:#000000;stroke-width:0.8;" x="78.358949" xlink:href="#m49274ed8f6" y="224.64"/>
      </g>
     </g>
     <g id="text_2">
      <!-- −0.75 -->
      <defs>
       <path d="M 9.796875 0 
L 19.03125 0 
L 51.421875 64.484375 
L 51.421875 72.734375 
L 4.828125 72.734375 
L 4.828125 64.921875 
L 42.328125 64.921875 
L 42.328125 64.34375 
z
" id="Inter-Regular-55"/>
       <path d="M 30.25 -1 
C 44.109375 -1 54.265625 9.234375 54.265625 23.15625 
C 54.265625 37.25 44.46875 47.578125 31.109375 47.578125 
C 26.203125 47.578125 21.453125 45.84375 18.46875 43.46875 
L 18.046875 43.46875 
L 20.59375 64.921875 
L 51 64.921875 
L 51 72.734375 
L 13.21875 72.734375 
L 8.8125 36.9375 
L 17.046875 35.9375 
C 20.0625 38.109375 25.21875 39.671875 29.6875 39.625 
C 38.953125 39.5625 45.734375 32.53125 45.734375 23.015625 
C 45.734375 13.671875 39.203125 6.8125 30.25 6.8125 
C 22.796875 6.8125 16.875 11.609375 16.1875 18.1875 
L 7.671875 18.1875 
C 8.203125 7.109375 17.75 -1 30.25 -1 
z
" id="Inter-Regular-53"/>
      </defs>
      <g transform="translate(64.665199 238.913437)scale(0.1 -0.1)">
       <use xlink:href="#Inter-Regular-8722"/>
       <use x="65.909103" xlink:href="#Inter-Regular-48"/>
       <use x="128.409119" xlink:href="#Inter-Regular-46"/>
       <use x="155.965942" xlink:href="#Inter-Regular-55"/>
       <use x="213.068222" xlink:href="#Inter-Regular-53"/>
      </g>
     </g>
    </g>
    <g id="xtick_3">
     <g id="line2d_3">
      <g>
       <use style="stroke:#000000;stroke-width:0.8;" x="116.404403" xlink:href="#m49274ed8f6" y="224.64"/>
      </g>
     </g>
     <g id="text_3">
      <!-- −0.50 -->
      <g transform="translate(102.441122 238.913437)scale(0.1 -0.1)">
       <use xlink:href="#Inter-Regular-8722"/>
       <use x="65.909103" xlink:href="#Inter-Regular-48"/>
       <use x="128.409119" xlink:href="#Inter-Regular-46"/>
       <use x="155.965942" xlink:href="#Inter-Regular-53"/>
       <use x="216.761414" xlink:href="#Inter-Regular-48"/>
      </g>
     </g>
    </g>
    <g id="xtick_4">
     <g id="line2d_4">
      <g>
       <use style="stroke:#000000;stroke-width:0.8;" x="154.449858" xlink:href="#m49274ed8f6" y="224.64"/>
      </g>
     </g>
     <g id="text_4">
      <!-- −0.25 -->
      <defs>
       <path d="M 7.53125 0 
L 53.40625 0 
L 53.40625 7.8125 
L 19.609375 7.8125 
L 19.609375 8.375 
L 35.9375 25.859375 
C 48.4375 39.234375 52.125 45.484375 52.125 53.546875 
C 52.125 64.765625 43.046875 73.71875 30.25 73.71875 
C 17.515625 73.71875 7.8125 65.0625 7.8125 52.265625 
L 16.1875 52.265625 
C 16.1875 60.546875 21.5625 66.046875 29.96875 66.046875 
C 37.859375 66.046875 43.890625 61.21875 43.890625 53.546875 
C 43.890625 46.84375 39.953125 41.875 31.53125 32.671875 
L 7.53125 6.390625 
z
" id="Inter-Regular-50"/>
      </defs>
      <g transform="translate(140.585795 238.913437)scale(0.1 -0.1)">
       <use xlink:href="#Inter-Regular-8722"/>
       <use x="65.909103" xlink:href="#Inter-Regular-48"/>
       <use x="128.409119" xlink:href="#Inter-Regular-46"/>
       <use x="155.965942" xlink:href="#Inter-Regular-50"/>
       <use x="216.477325" xlink:href="#Inter-Regular-53"/>
      </g>
     </g>
    </g>
    <g id="xtick_5">
     <g id="line2d_5">
      <g>
       <use style="stroke:#000000;stroke-width:0.8;" x="192.495313" xlink:href="#m49274ed8f6" y="224.64"/>
      </g>
     </g>
     <g id="text_5">
      <!-- 0.00 -->
      <g transform="translate(181.742188 238.913437)scale(0.1 -0.1)">
       <use xlink:href="#Inter-Regular-48"/>
       <use x="62.500015" xlink:href="#Inter-Regular-46"/>
       <use x="90.056839" xlink:href="#Inter-Regular-48"/>
       <use x="152.556854" xlink:href="#Inter-Regular-48"/>
      </g>
     </g>
    </g>
    <g id="xtick_6">
     <g id="line2d_6">
      <g>
       <use style="stroke:#000000;stroke-width:0.8;" x="230.540767" xlink:href="#m49274ed8f6" y="224.64"/>
      </g>
     </g>
     <g id="text_6">
      <!-- 0.25 -->
      <g transform="translate(219.972017 238.913437)scale(0.1 -0.1)">
       <use xlink:href="#Inter-Regular-48"/>
       <use x="62.500015" xlink:href="#Inter-Regular-46"/>
       <use x="90.056839" xlink:href="#Inter-Regular-50"/>
       <use x="150.568222" xlink:href="#Inter-Regular-53"/>
      </g>
     </g>
    </g>
    <g id="xtick_7">
     <g id="line2d_7">
      <g>
       <use style="stroke:#000000;stroke-width:0.8;" x="268.586222" xlink:href="#m49274ed8f6" y="224.64"/>
      </g>
     </g>
     <g id="text_7">
      <!-- 0.50 -->
      <g transform="translate(257.918253 238.913437)scale(0.1 -0.1)">
       <use xlink:href="#Inter-Regular-48"/>
       <use x="62.500015" xlink:href="#Inter-Regular-46"/>
       <use x="90.056839" xlink:href="#Inter-Regular-53"/>
       <use x="150.85231" xlink:href="#Inter-Regular-48"/>
      </g>
     </g>
    </g>
    <g id="xtick_8">
     <g id="line2d_8">
      <g>
       <use style="stroke:#000000;stroke-width:0.8;" x="306.631676" xlink:href="#m49274ed8f6" y="224.64"/>
      </g>
     </g>
     <g id="text_8">
      <!-- 0.75 -->
      <g transform="translate(296.233239 238.913437)scale(0.1 -0.1)">
       <use xlink:href="#Inter-Regular-48"/>
       <use x="62.500015" xlink:href="#Inter-Regular-46"/>
       <use x="90.056839" xlink:href="#Inter-Regular-55"/>
       <use x="147.159119" xlink:href="#Inter-Regular-53"/>
      </g>
     </g>
    </g>
    <g id="xtick_9">
     <g id="line2d_9">
      <g>
       <use style="stroke:#000000;stroke-width:0.8;" x="344.677131" xlink:href="#m49274ed8f6" y="224.64"/>
      </g>
     </g>
     <g id="text_9">
      <!-- 1.00 -->
      <g transform="translate(334.726349 238.913437)scale(0.1 -0.1)">
       <use xlink:href="#Inter-Regular-49"/>
       <use x="46.448868" xlink:href="#Inter-Regular-46"/>
       <use x="74.005692" xlink:href="#Inter-Regular-48"/>
       <use x="136.505707" xlink:href="#Inter-Regular-48"/>
      </g>
     </g>
    </g>
   </g>
   <g id="matplotlib.axis_2">
    <g id="ytick_1">
     <g id="line2d_10">
      <defs>
       <path d="M 0 0 
L -3.5 0 
" id="me3ba5b22ad" style="stroke:#000000;stroke-width:0.8;"/>
      </defs>
      <g>
       <use style="stroke:#000000;stroke-width:0.8;" x="25.095313" xlink:href="#me3ba5b22ad" y="214.756364"/>
      </g>
     </g>
     <g id="text_10">
      <!-- 0 -->
      <g transform="translate(11.845313 218.393082)scale(0.1 -0.1)">
       <use xlink:href="#Inter-Regular-48"/>
      </g>
     </g>
    </g>
    <g id="ytick_2">
     <g id="line2d_11">
      <g>
       <use style="stroke:#000000;stroke-width:0.8;" x="25.095313" xlink:href="#me3ba5b22ad" y="176.794099"/>
      </g>
     </g>
     <g id="text_11">
      <!-- 2 -->
      <g transform="translate(12.04375 180.430818)scale(0.1 -0.1)">
       <use xlink:href="#Inter-Regular-50"/>
      </g>
     </g>
    </g>
    <g id="ytick_3">
     <g id="line2d_12">
      <g>
       <use style="stroke:#000000;stroke-width:0.8;" x="25.095313" xlink:href="#me3ba5b22ad" y="138.831835"/>
      </g>
     </g>
     <g id="text_12">
      <!-- 4 -->
      <defs>
       <path d="M 5.828125 14.921875 
L 40.0625 14.921875 
L 40.0625 0 
L 48.4375 0 
L 48.4375 14.921875 
L 58.375 14.921875 
L 58.375 22.734375 
L 48.4375 22.734375 
L 48.4375 72.734375 
L 37.78125 72.734375 
L 5.828125 22.15625 
z
M 40.0625 22.734375 
L 15.34375 22.734375 
L 15.34375 23.296875 
L 39.484375 61.5 
L 40.0625 61.5 
z
" id="Inter-Regular-52"/>
      </defs>
      <g transform="translate(11.675 142.468554)scale(0.1 -0.1)">
       <use xlink:href="#Inter-Regular-52"/>
      </g>
     </g>
    </g>
    <g id="ytick_4">
     <g id="line2d_13">
      <g>
       <use style="stroke:#000000;stroke-width:0.8;" x="25.095313" xlink:href="#me3ba5b22ad" y="100.869571"/>
      </g>
     </g>
     <g id="text_13">
      <!-- 6 -->
      <defs>
       <path d="M 31.671875 -1 
C 46.375 -1.171875 55.96875 9.90625 55.96875 23.4375 
C 55.96875 37.5 45.5625 47.578125 33.09375 47.578125 
C 25.609375 47.578125 19.171875 43.921875 15.203125 37.921875 
L 14.625 37.921875 
C 14.671875 55.78125 21.5625 66.046875 32.8125 66.046875 
C 40.484375 66.046875 45.09375 61.21875 46.734375 54.546875 
L 55.40625 54.546875 
C 53.625 65.984375 45.03125 73.859375 32.8125 73.859375 
C 16.4375 73.859375 6.390625 59.375 6.390625 33.515625 
C 6.390625 6.640625 19.75 -0.859375 31.671875 -1 
z
M 31.671875 6.8125 
C 22.546875 6.8125 15.875 14.59375 15.90625 23.296875 
C 15.953125 32 22.9375 39.765625 31.96875 39.765625 
C 40.875 39.765625 47.4375 32.453125 47.4375 23.4375 
C 47.4375 14.203125 40.59375 6.8125 31.671875 6.8125 
z
" id="Inter-Regular-54"/>
      </defs>
      <g transform="translate(11.859375 104.50629)scale(0.1 -0.1)">
       <use xlink:href="#Inter-Regular-54"/>
      </g>
     </g>
    </g>
    <g id="ytick_5">
     <g id="line2d_14">
      <g>
       <use style="stroke:#000000;stroke-width:0.8;" x="25.095313" xlink:href="#me3ba5b22ad" y="62.907307"/>
      </g>
     </g>
     <g id="text_14">
      <!-- 8 -->
      <defs>
       <path d="M 30.828125 -1 
C 45.34375 -1 55.46875 7.5 55.546875 19.3125 
C 55.46875 28.515625 49.328125 36.328125 41.484375 37.78125 
L 41.484375 38.203125 
C 48.296875 39.984375 52.765625 46.65625 52.84375 54.40625 
C 52.765625 65.484375 43.46875 73.71875 30.828125 73.71875 
C 18.046875 73.71875 8.734375 65.484375 8.8125 54.40625 
C 8.734375 46.65625 13.21875 39.984375 20.171875 38.203125 
L 20.171875 37.78125 
C 12.1875 36.328125 6.03125 28.515625 6.109375 19.3125 
C 6.03125 7.5 16.15625 -1 30.828125 -1 
z
M 30.828125 6.8125 
C 20.84375 6.8125 14.703125 11.9375 14.78125 19.75 
C 14.703125 27.953125 21.484375 33.8125 30.828125 33.8125 
C 40.015625 33.8125 46.8125 27.953125 46.875 19.75 
C 46.8125 11.9375 40.65625 6.8125 30.828125 6.8125 
z
M 30.828125 41.328125 
C 22.875 41.328125 17.265625 46.3125 17.328125 53.828125 
C 17.265625 61.21875 22.65625 66.046875 30.828125 66.046875 
C 38.84375 66.046875 44.25 61.21875 44.3125 53.828125 
C 44.25 46.3125 38.640625 41.328125 30.828125 41.328125 
z
" id="Inter-Regular-56"/>
      </defs>
      <g transform="translate(11.929688 66.544025)scale(0.1 -0.1)">
       <use xlink:href="#Inter-Regular-56"/>
      </g>
     </g>
    </g>
    <g id="ytick_6">
     <g id="line2d_15">
      <g>
       <use style="stroke:#000000;stroke-width:0.8;" x="25.095313" xlink:href="#me3ba5b22ad" y="24.945042"/>
      </g>
     </g>
     <g id="text_15">
      <!-- 10 -->
      <g transform="translate(7.2 28.581761)scale(0.1 -0.1)">
       <use xlink:href="#Inter-Regular-49"/>
       <use x="46.448868" xlink:href="#Inter-Regular-48"/>
      </g>
     </g>
    </g>
   </g>
   <g id="line2d_16">
    <path clip-path="url(#p9e5ea87c84)" d="M 40.313494 214.756364 
L 115.257304 214.756364 
L 116.78677 214.544479 
L 130.551959 207.02753 
L 138.199287 203.082195 
L 144.317149 200.130491 
L 150.435011 197.411766 
L 156.552873 194.969329 
L 161.14127 193.342402 
L 165.729666 191.90746 
L 170.318063 190.677369 
L 174.906459 189.663157 
L 179.494856 188.873916 
L 184.083252 188.316722 
L 188.671649 187.996572 
L 193.260045 187.916334 
L 197.848442 188.076729 
L 202.436838 188.476319 
L 207.025235 189.11152 
L 211.613631 189.976639 
L 216.202028 191.063919 
L 220.790424 192.363612 
L 225.378821 193.864065 
L 229.967217 195.551827 
L 236.08508 198.067167 
L 242.202942 200.848354 
L 248.320804 203.851086 
L 255.968131 207.842904 
L 268.203855 214.544479 
L 269.733321 214.756364 
L 344.677131 214.756364 
L 344.677131 214.756364 
" style="fill:none;stroke:#1f77b4;stroke-linecap:square;stroke-width:1.5;"/>
   </g>
   <g id="line2d_17">
    <path clip-path="url(#p9e5ea87c84)" d="M 40.313494 157.812967 
L 115.257304 157.812967 
L 116.78677 157.389211 
L 124.434097 149.075845 
L 129.022494 144.452493 
L 132.081425 141.626275 
L 135.140356 139.0579 
L 138.199287 136.78828 
L 141.258218 134.853568 
L 144.317149 133.284582 
L 147.37608 132.106317 
L 150.435011 131.337539 
L 153.493942 130.990497 
L 156.552873 131.070717 
L 159.611804 131.576921 
L 162.670735 132.501048 
L 165.729666 133.828375 
L 168.788597 135.537759 
L 171.847528 137.601972 
L 174.906459 139.988131 
L 177.96539 142.658227 
L 181.024321 145.569727 
L 185.612718 150.287287 
L 191.73058 156.965561 
L 199.377907 165.338648 
L 203.966304 170.056208 
L 207.025235 172.967708 
L 210.084166 175.637804 
L 213.143097 178.023963 
L 216.202028 180.088175 
L 219.260959 181.79756 
L 222.31989 183.124887 
L 225.378821 184.049013 
L 228.437752 184.555218 
L 231.496683 184.635438 
L 234.555614 184.288395 
L 237.614545 183.519618 
L 240.673476 182.341352 
L 243.732407 180.772367 
L 246.791338 178.837655 
L 249.850269 176.568034 
L 252.9092 173.999659 
L 255.968131 171.173442 
L 260.556528 166.550089 
L 266.67439 159.929636 
L 268.203855 158.236723 
L 269.733321 157.812967 
L 344.677131 157.812967 
L 344.677131 157.812967 
" style="fill:none;stroke:#ff7f0e;stroke-linecap:square;stroke-width:1.5;"/>
   </g>
   <g id="line2d_18">
    <path clip-path="url(#p9e5ea87c84)" d="M 40.313494 100.869571 
L 115.257304 100.869571 
L 116.78677 100.23397 
L 121.375166 92.735889 
L 124.434097 88.064123 
L 127.493028 83.850553 
L 130.551959 80.245947 
L 132.081425 78.713294 
L 133.61089 77.379282 
L 135.140356 76.255871 
L 136.669821 75.353132 
L 138.199287 74.679159 
L 139.728752 74.239994 
L 141.258218 74.039575 
L 142.787683 74.079699 
L 144.317149 74.360006 
L 145.846614 74.877982 
L 147.37608 75.628984 
L 148.905545 76.60628 
L 150.435011 77.801106 
L 151.964477 79.202751 
L 153.493942 80.798648 
L 156.552873 84.514355 
L 159.611804 88.815274 
L 162.670735 93.547512 
L 174.906459 113.300992 
L 177.96539 117.558767 
L 181.024321 121.21938 
L 182.553787 122.78385 
L 184.083252 124.151849 
L 185.612718 125.311112 
L 187.142183 126.251247 
L 188.671649 126.963823 
L 190.201114 127.442453 
L 191.73058 127.682846 
L 193.260045 127.682846 
L 194.789511 127.442453 
L 196.318976 126.963823 
L 197.848442 126.251247 
L 199.377907 125.311112 
L 200.907373 124.151849 
L 202.436838 122.78385 
L 203.966304 121.21938 
L 207.025235 117.558767 
L 210.084166 113.300992 
L 213.143097 108.598404 
L 219.260959 98.541744 
L 223.849355 91.137768 
L 226.908286 86.600852 
L 229.967217 82.57449 
L 231.496683 80.798648 
L 233.026148 79.202751 
L 234.555614 77.801106 
L 236.08508 76.60628 
L 237.614545 75.628984 
L 239.144011 74.877982 
L 240.673476 74.360006 
L 242.202942 74.079699 
L 243.732407 74.039575 
L 245.261873 74.239994 
L 246.791338 74.679159 
L 248.320804 75.353132 
L 249.850269 76.255871 
L 251.379735 77.379282 
L 252.9092 78.713294 
L 254.438666 80.245947 
L 255.968131 81.9635 
L 259.027062 85.89019 
L 262.085993 90.352863 
L 266.67439 97.69869 
L 268.203855 100.23397 
L 269.733321 100.869571 
L 344.677131 100.869571 
L 344.677131 100.869571 
" style="fill:none;stroke:#2ca02c;stroke-linecap:square;stroke-width:1.5;"/>
   </g>
   <g id="line2d_19">
    <path clip-path="url(#p9e5ea87c84)" d="M 40.313494 43.926175 
L 115.257304 43.926175 
L 116.78677 43.078768 
L 121.375166 33.214848 
L 124.434097 27.403454 
L 125.963563 24.870277 
L 127.493028 22.640647 
L 129.022494 20.750081 
L 130.551959 19.228693 
L 132.081425 18.100718 
L 133.61089 17.384124 
L 135.140356 17.090326 
L 136.669821 17.224004 
L 138.199287 17.783028 
L 139.728752 18.758494 
L 141.258218 20.134863 
L 142.787683 21.89021 
L 144.317149 23.996575 
L 145.846614 26.420404 
L 147.37608 29.123087 
L 150.435011 35.189053 
L 155.023408 45.19702 
L 158.082339 51.857679 
L 161.14127 58.014978 
L 162.670735 60.780807 
L 164.200201 63.278153 
L 165.729666 65.467237 
L 167.259132 67.313187 
L 168.788597 68.786598 
L 170.318063 69.864001 
L 171.847528 70.528233 
L 173.376994 70.768713 
L 174.906459 70.581611 
L 176.435925 69.969906 
L 177.96539 68.943344 
L 179.494856 67.518276 
L 181.024321 65.717403 
L 182.553787 63.569412 
L 184.083252 61.108517 
L 185.612718 58.37392 
L 188.671649 52.261526 
L 193.260045 42.232206 
L 196.318976 35.590823 
L 199.377907 29.478429 
L 200.907373 26.743832 
L 202.436838 24.282938 
L 203.966304 22.134946 
L 205.495769 20.334073 
L 207.025235 18.909005 
L 208.5547 17.882443 
L 210.084166 17.270739 
L 211.613631 17.083636 
L 213.143097 17.324116 
L 214.672562 17.988348 
L 216.202028 19.065751 
L 217.731493 20.539163 
L 219.260959 22.385112 
L 220.790424 24.574196 
L 222.31989 27.071543 
L 225.378821 32.827625 
L 228.437752 39.288059 
L 234.555614 52.663296 
L 237.614545 58.729262 
L 239.144011 61.431946 
L 240.673476 63.855774 
L 242.202942 65.962139 
L 243.732407 67.717486 
L 245.261873 69.093855 
L 246.791338 70.069321 
L 248.320804 70.628345 
L 249.850269 70.762023 
L 251.379735 70.468225 
L 252.9092 69.751631 
L 254.438666 68.623656 
L 255.968131 67.102268 
L 257.497597 65.211702 
L 259.027062 62.982072 
L 260.556528 60.448895 
L 263.615459 54.637501 
L 266.67439 48.14633 
L 268.203855 44.773581 
L 269.733321 43.926175 
L 344.677131 43.926175 
L 344.677131 43.926175 
" style="fill:none;stroke:#d62728;stroke-linecap:square;stroke-width:1.5;"/>
   </g>
   <g id="patch_3">
    <path d="M 25.095313 224.64 
L 25.095313 7.2 
" style="fill:none;stroke:#000000;stroke-linecap:square;stroke-linejoin:miter;stroke-width:0.8;"/>
   </g>
   <g id="patch_4">
    <path d="M 359.895312 224.64 
L 359.895312 7.2 
" style="fill:none;stroke:#000000;stroke-linecap:square;stroke-linejoin:miter;stroke-width:0.8;"/>
   </g>
   <g id="patch_5">
    <path d="M 25.095313 224.64 
L 359.895313 224.64 
" style="fill:none;stroke:#000000;stroke-linecap:square;stroke-linejoin:miter;stroke-width:0.8;"/>
   </g>
   <g id="patch_6">
    <path d="M 25.095313 7.2 
L 359.895313 7.2 
" style="fill:none;stroke:#000000;stroke-linecap:square;stroke-linejoin:miter;stroke-width:0.8;"/>
   </g>
   <g id="patch_7">
    <path clip-path="url(#p9e5ea87c84)" d="M 40.313494 214.756364 
L 116.404403 214.756364 
L 116.404403 -544.488921 
L 40.313494 -544.488921 
z
" style="fill-opacity:0.4;"/>
   </g>
   <g id="patch_8">
    <path clip-path="url(#p9e5ea87c84)" d="M 268.586222 214.756364 
L 344.677131 214.756364 
L 344.677131 -544.488921 
L 268.586222 -544.488921 
z
" style="fill-opacity:0.4;"/>
   </g>
   <g id="patch_9">
    <path clip-path="url(#p9e5ea87c84)" d="M 40.313494 252.718628 
L 344.677131 252.718628 
L 344.677131 214.756364 
L 40.313494 214.756364 
z
" style="fill-opacity:0.4;"/>
   </g>
  </g>
 </g>
 <defs>
  <clipPath id="p9e5ea87c84">
   <rect height="217.44" width="334.8" x="25.095313" y="7.2"/>
  </clipPath>
 </defs>
</svg>
